<svg width="24" height="18" viewBox="0 0 24 18" fill="none" xmlns="http://www.w3.org/2000/svg">
<path fill-rule="evenodd" clip-rule="evenodd" d="M2.96262 0C1.32641 0 0 1.34315 0 3V15C0 16.6569 1.32642 18 2.96263 18H21.0374C22.6736 18 24 16.6569 24 15V3C24 1.34314 22.6736 0 21.0374 0H2.96262ZM1.61598 3C1.61598 2.24688 2.21889 1.63636 2.96262 1.63636H21.0374C21.7811 1.63636 22.384 2.24689 22.384 3V4.14888C22.3411 4.16623 22.2991 4.18756 22.2584 4.21298L12.141 10.5371C12.0543 10.5913 11.9448 10.5913 11.8581 10.5371L1.74066 4.21298C1.70028 4.18774 1.65857 4.16654 1.61598 4.14925V3ZM1.61598 6.05806V15C1.61598 15.0691 1.62106 15.1371 1.63086 15.2034L7.25271 9.58142L1.61598 6.05806ZM2.78252 16.3515C2.84144 16.3595 2.90156 16.3636 2.96263 16.3636H21.0374C21.0982 16.3636 21.158 16.3596 21.2167 16.3517L15.3312 10.466L12.9898 11.9295C12.3828 12.309 11.6163 12.309 11.0092 11.9295L8.6679 10.466L2.78252 16.3515ZM22.369 15.2042C22.3789 15.1376 22.384 15.0694 22.384 15V6.05748L16.7464 9.58142L22.369 15.2042Z" fill="black"/>
</svg>
