<svg width="36" height="36" viewBox="0 0 36 36" fill="none" xmlns="http://www.w3.org/2000/svg">
<path d="M28.761 1.051C29.373 1.051 30.002 1.187 30.614 1.476C31.226 1.765 31.804 2.139 32.348 2.632C33.266 3.465 33.929 4.383 34.354 5.42C34.779 6.44 35 7.545 35 8.735C35 10.469 34.592 12.322 33.759 14.277C32.926 16.232 31.804 18.187 30.393 20.125C28.965 22.08 27.384 23.933 25.633 25.701C23.865 27.452 22.012 29.033 20.074 30.444C18.136 31.838 16.198 32.96 14.277 33.776C12.339 34.592 10.486 35 8.718 35C7.562 35 6.457 34.796 5.437 34.388C4.4 33.98 3.448 33.334 2.598 32.433C1.527 31.345 1 30.155 1 28.897C1 28.421 1.102 27.945 1.306 27.52C1.51 27.078 1.816 26.687 2.258 26.381L7.817 22.437C8.242 22.131 8.633 21.91 9.007 21.757C9.364 21.604 9.721 21.519 10.044 21.519C10.452 21.519 10.86 21.638 11.251 21.876C11.642 22.097 12.05 22.42 12.458 22.828L13.801 24.12C13.988 24.307 14.209 24.392 14.481 24.392C14.617 24.392 14.736 24.375 14.872 24.341C15.008 24.29 15.11 24.239 15.212 24.205C15.773 23.899 16.504 23.372 17.388 22.624C18.272 21.859 19.173 21.043 20.074 20.159C20.975 19.241 21.808 18.357 22.573 17.456C23.321 16.572 23.831 15.841 24.137 15.263C24.171 15.178 24.222 15.076 24.273 14.957C24.324 14.821 24.341 14.685 24.341 14.532C24.341 14.243 24.239 14.022 24.052 13.835L22.777 12.543C22.352 12.118 22.029 11.71 21.825 11.319C21.587 10.928 21.468 10.537 21.468 10.112C21.468 9.789 21.536 9.449 21.689 9.075C21.842 8.701 22.063 8.31 22.352 7.885L26.347 2.258C26.653 1.816 27.01 1.51 27.435 1.323C27.86 1.153 28.285 1.051 28.761 1.051Z" stroke="white" stroke-width="2" stroke-miterlimit="10"/>
<path d="M12.9002 6.95015C11.8802 6.95015 10.3162 7.74915 9.0412 8.93915C7.8682 10.0271 6.9502 11.4721 6.9502 12.9001" stroke="white" stroke-width="2" stroke-linecap="round" stroke-linejoin="round"/>
<path d="M12.9 1.00015C6.321 1.00015 1 6.32115 1 12.9001" stroke="white" stroke-width="2" stroke-linecap="round" stroke-linejoin="round"/>
</svg>
