<svg width="28" height="20" viewBox="0 0 28 20" fill="none" xmlns="http://www.w3.org/2000/svg">
<path d="M2 8.75C1.30964 8.75 0.75 9.30964 0.75 10C0.75 10.6904 1.30964 11.25 2 11.25L2 8.75ZM26.8839 10.8839C27.372 10.3957 27.372 9.60427 26.8839 9.11612L18.9289 1.16117C18.4408 0.67301 17.6493 0.67301 17.1612 1.16117C16.673 1.64932 16.673 2.44078 17.1612 2.92893L24.2322 10L17.1612 17.0711C16.673 17.5592 16.673 18.3507 17.1612 18.8388C17.6493 19.327 18.4408 19.327 18.9289 18.8388L26.8839 10.8839ZM2 11.25L26 11.25V8.75L2 8.75L2 11.25Z" fill="black"/>
</svg>
