<svg width="28" height="28" viewBox="0 0 28 28" fill="none" xmlns="http://www.w3.org/2000/svg">
<path fill-rule="evenodd" clip-rule="evenodd" d="M25.9974 15.1611C27.1019 15.1611 27.9974 14.2656 27.9974 13.1611C27.9974 12.0565 27.1019 11.1611 25.9974 11.1611L17.048 11.1611V2.19955C17.048 1.09498 16.1526 0.199555 15.048 0.199554C13.9434 0.199555 13.048 1.09498 13.048 2.19956L13.048 11.1611H2.99737C1.8928 11.1611 0.997372 12.0565 0.997372 13.1611C0.997372 14.2656 1.8928 15.1611 2.99737 15.1611H13.048L13.048 25.1996C13.048 26.3041 13.9434 27.1996 15.048 27.1996C16.1526 27.1996 17.048 26.3041 17.048 25.1996L17.048 15.1611H25.9974Z" fill="#E31E24"/>
</svg>
