<svg width="28" height="20" viewBox="0 0 28 20" fill="none" xmlns="http://www.w3.org/2000/svg">
<path opacity="0.3" d="M25.7946 0.000976562H1.3584L2.26351 19.6857H24.8895L25.7946 0.000976562Z" fill="white"/>
<path opacity="0.3" d="M25.7946 0.000976562H1.3584L12.6146 8.40054H14.7077L25.7946 0.000976562Z" fill="white"/>
<path opacity="0.1" d="M3.39453 19.6861L13.577 10.5219L23.7595 19.6861H3.39453Z" fill="white"/>
<path fill-rule="evenodd" clip-rule="evenodd" d="M3.3949 1.6983C3.3949 0.761581 2.63602 0.00134277 1.69794 0.00134277C0.761215 0.00134277 0.000976562 0.761581 0.000976562 1.6983C0.000976562 5.31215 0.000976562 13.7549 0.000976562 17.6497C0.000976562 18.7752 0.913263 19.6861 2.03733 19.6861C2.75956 19.6861 3.3949 19.6861 3.3949 19.6861C3.3949 19.6861 3.3949 6.47559 3.3949 1.6983Z" fill="white"/>
<path fill-rule="evenodd" clip-rule="evenodd" d="M23.7578 1.69794C23.7578 0.761215 24.5181 0.000976562 25.4548 0.000976562C25.4561 0.000976562 25.4575 0.000976562 25.4575 0.000976562C26.3942 0.000976562 27.1517 0.759858 27.1517 1.69522C27.1517 5.30771 27.1517 13.7531 27.1517 17.6494C27.1517 18.7748 26.2408 19.6857 25.1154 19.6857C24.3945 19.6857 23.7578 19.6857 23.7578 19.6857C23.7578 19.6857 23.7578 6.47522 23.7578 1.69794Z" fill="white"/>
<path fill-rule="evenodd" clip-rule="evenodd" d="M0.848079 3.16681C0.458456 2.94145 0.174725 2.57219 0.0579736 2.13777C-0.0587773 1.70335 0.00231331 1.24177 0.22767 0.852151C0.22767 0.852151 0.229027 0.850794 0.229027 0.849436C0.454384 0.459814 0.825 0.176083 1.25942 0.0593317C1.69384 -0.0574192 2.15677 0.00367142 2.5464 0.229028L13.5766 6.59738L24.6096 0.22767C24.9992 0.00231331 25.4608 -0.0587773 25.8952 0.0579736C26.3296 0.174724 26.6989 0.458457 26.9243 0.848079L26.9256 0.849436C27.151 1.23906 27.2121 1.70335 27.0953 2.13777C26.9786 2.57219 26.6935 2.94281 26.3038 3.16816L16.9706 8.55635L13.5766 10.5167L10.1827 8.55635L0.848079 3.16681V3.16681Z" fill="white"/>
</svg>
