<svg width="25" height="25" viewBox="0 0 25 25" fill="none" xmlns="http://www.w3.org/2000/svg">
<path d="M21.3896 3.64865C19.0736 1.28378 15.8719 0 12.6022 0C5.65395 0 0.0681199 5.60811 0.13624 12.4324C0.13624 14.5946 0.749319 16.6892 1.77112 18.5811L0 25L6.60763 23.3108C8.44687 24.3243 10.4905 24.7973 12.5341 24.7973C19.4142 24.7973 25 19.1892 25 12.3649C25 9.05405 23.7057 5.94595 21.3896 3.64865ZM12.6022 22.7027C10.7629 22.7027 8.92371 22.2297 7.35695 21.2838L6.94823 21.0811L2.99728 22.0946L4.01907 18.2432L3.74659 17.8378C0.749319 13.0405 2.17984 6.68919 7.08447 3.71622C11.9891 0.743243 18.3242 2.16216 21.3215 7.02703C24.3188 11.8919 22.8883 18.1757 17.9837 21.1486C16.4169 22.1622 14.5095 22.7027 12.6022 22.7027ZM18.5967 15.2027L17.8474 14.8649C17.8474 14.8649 16.7575 14.3919 16.0763 14.0541C16.0082 14.0541 15.9401 13.9865 15.8719 13.9865C15.6676 13.9865 15.5313 14.0541 15.3951 14.1216C15.3951 14.1216 15.327 14.1892 14.3733 15.2703C14.3052 15.4054 14.1689 15.473 14.0327 15.473H13.9646C13.8965 15.473 13.7602 15.4054 13.6921 15.3378L13.3515 15.2027C12.6022 14.8649 11.921 14.4595 11.376 13.9189C11.2398 13.7838 11.0354 13.6486 10.8992 13.5135C10.4223 13.0405 9.9455 12.5 9.6049 11.8919L9.53678 11.7568C9.46866 11.6892 9.46866 11.6216 9.40054 11.4865C9.40054 11.3514 9.40054 11.2162 9.46866 11.1486C9.46866 11.1486 9.74114 10.8108 9.9455 10.6081C10.0817 10.473 10.1499 10.2703 10.2861 10.1351C10.4223 9.93243 10.4905 9.66216 10.4223 9.45946C10.3542 9.12162 9.53678 7.2973 9.33242 6.89189C9.19618 6.68919 9.05995 6.62162 8.85559 6.55405H8.65123C8.51499 6.55405 8.31063 6.55405 8.10627 6.55405C7.97003 6.55405 7.83379 6.62162 7.69755 6.62162L7.62943 6.68919C7.49319 6.75676 7.35695 6.89189 7.22071 6.95946C7.08447 7.09459 7.01635 7.22973 6.88011 7.36486C6.40327 7.97297 6.13079 8.71622 6.13079 9.45946C6.13079 10 6.26703 10.5405 6.47139 11.0135L6.53951 11.2162C7.15259 12.5 7.97003 13.6486 9.05995 14.6622L9.33242 14.9324C9.53678 15.1351 9.74114 15.2703 9.87738 15.473C11.3079 16.6892 12.9428 17.5676 14.782 18.0405C14.9864 18.1081 15.2589 18.1081 15.4632 18.1757C15.6676 18.1757 15.9401 18.1757 16.1444 18.1757C16.485 18.1757 16.8937 18.0405 17.1662 17.9054C17.3706 17.7703 17.5068 17.7703 17.6431 17.6351L17.7793 17.5C17.9155 17.3649 18.0518 17.2973 18.188 17.1622C18.3243 17.027 18.4605 16.8919 18.5286 16.7568C18.6649 16.4865 18.733 16.1486 18.8011 15.8108C18.8011 15.6757 18.8011 15.473 18.8011 15.3378C18.8011 15.3378 18.733 15.2703 18.5967 15.2027Z" fill="white"/>
</svg>
