<svg width="28" height="29" viewBox="0 0 28 29" fill="none" xmlns="http://www.w3.org/2000/svg">
<path d="M24.3779 2.82579C23.6594 2.16518 20.7504 0.0500724 14.266 0.0210983C14.266 0.0210983 6.6226 -0.442487 2.89653 2.97646C0.821983 5.051 0.0918357 8.08169 0.0165031 11.8483C-0.0588296 15.6092 -0.157342 22.6615 6.63998 24.5737H6.64578L6.63998 27.4885C6.63998 27.4885 6.59942 28.6707 7.37593 28.9083C8.31469 29.198 8.87099 28.2998 9.76918 27.3321C10.2617 26.799 10.9397 26.0225 11.4555 25.4256C16.1029 25.8138 19.6783 24.9214 20.084 24.7882C21.0227 24.481 26.3366 23.803 27.2 16.7507C28.0924 9.49563 26.7654 4.90034 24.3779 2.82579ZM25.166 16.2408C24.4359 22.1283 20.1303 22.4992 19.3364 22.7542C19.0003 22.8643 15.8595 23.6466 11.9075 23.3858C11.9075 23.3858 8.9637 26.938 8.04812 27.8594C7.90325 28.0043 7.7352 28.0622 7.6251 28.0333C7.46864 27.9927 7.42228 27.8073 7.42808 27.5349C7.42808 27.1409 7.45126 22.6846 7.45126 22.6846C7.44546 22.6846 7.44546 22.6846 7.45126 22.6846C1.697 21.0911 2.0331 15.0876 2.09684 11.9468C2.16059 8.80605 2.75166 6.22735 4.50749 4.4947C7.65408 1.64365 14.1501 2.06667 14.1501 2.06667C19.632 2.08985 22.257 3.74137 22.8655 4.29188C24.8879 6.03033 25.9193 10.1736 25.166 16.2408Z" fill="white"/>
<path d="M16.937 12.057C16.7458 12.057 16.5835 11.9063 16.5719 11.7093C16.5082 10.4634 15.9229 9.85498 14.7292 9.79123C14.5263 9.77964 14.3699 9.6058 14.3815 9.40298C14.3931 9.20016 14.5669 9.0437 14.7697 9.05529C16.3459 9.14221 17.2267 10.0462 17.3078 11.6688C17.3194 11.8716 17.163 12.0454 16.9602 12.0512C16.9486 12.057 16.9428 12.057 16.937 12.057Z" fill="white"/>
<path d="M18.8149 12.6828H18.8091C18.6063 12.677 18.4441 12.509 18.4499 12.3062C18.4788 11.0545 18.1195 10.0404 17.3546 9.20595C16.5955 8.3715 15.5466 7.9195 14.1617 7.82099C13.9589 7.80361 13.8082 7.62976 13.8256 7.42694C13.843 7.22412 14.0168 7.07346 14.2196 7.09084C15.7842 7.20674 17.0185 7.75145 17.8993 8.71339C18.786 9.68113 19.2148 10.8922 19.1858 12.3236C19.18 12.5264 19.0119 12.6828 18.8149 12.6828Z" fill="white"/>
<path d="M20.738 13.4361C20.5352 13.4361 20.3729 13.2738 20.3729 13.071C20.3556 10.8284 19.7123 9.11895 18.4027 7.83829C17.1105 6.57502 15.4705 5.93179 13.5409 5.91441C13.338 5.91441 13.1758 5.74636 13.1758 5.54354C13.1758 5.34072 13.3438 5.17847 13.5409 5.17847C15.6676 5.19585 17.4755 5.90861 18.9069 7.31096C20.344 8.71331 21.0799 10.6488 21.1031 13.0594C21.1089 13.268 20.9466 13.4361 20.738 13.4361C20.7438 13.4361 20.7438 13.4361 20.738 13.4361Z" fill="white"/>
<path d="M14.8164 16.5942C14.8164 16.5942 15.3321 16.6406 15.6103 16.2987L16.1492 15.6207C16.41 15.2846 17.0416 15.0702 17.6559 15.4121C17.9977 15.6033 18.6178 15.9858 19.0003 16.2697C19.4117 16.571 20.2461 17.2664 20.2519 17.2722C20.6518 17.6083 20.7445 18.1009 20.4721 18.6282C20.4721 18.6282 20.4721 18.634 20.4721 18.6398C20.194 19.1323 19.8173 19.5959 19.3479 20.0247C19.3421 20.0247 19.3421 20.0305 19.3364 20.0305C18.9481 20.3551 18.5656 20.5405 18.1948 20.5811C18.1484 20.5926 18.0963 20.5926 18.0267 20.5926C17.8645 20.5926 17.7022 20.5695 17.54 20.5173L17.5284 20.4999C16.9489 20.3377 15.9869 19.932 14.3876 19.0454C13.3445 18.4717 12.4811 17.8865 11.7451 17.3012C11.3569 16.9941 10.9628 16.6522 10.5572 16.2465C10.5456 16.2349 10.5282 16.2176 10.5166 16.206C10.505 16.1944 10.4877 16.177 10.4761 16.1654C10.4645 16.1538 10.4471 16.1364 10.4355 16.1248C10.4239 16.1132 10.4065 16.0959 10.3949 16.0843C9.9951 15.6786 9.64741 15.2846 9.34029 14.8963C8.75501 14.1662 8.16973 13.297 7.59604 12.2539C6.70944 10.6487 6.3038 9.68679 6.14155 9.1131L6.12416 9.10151C6.07201 8.93926 6.04883 8.777 6.04883 8.61475C6.04883 8.54521 6.04883 8.49306 6.06042 8.4467C6.10678 8.07003 6.29221 7.69337 6.61093 7.30512C6.61093 7.29932 6.61672 7.29932 6.61672 7.29353C7.04554 6.81835 7.50912 6.44749 8.00168 6.16933C8.00168 6.16933 8.00748 6.16933 8.01327 6.16933C8.53481 5.89698 9.02737 5.98969 9.36926 6.38954C9.36926 6.38954 10.0704 7.22979 10.3718 7.64122C10.6557 8.02947 11.0382 8.64372 11.2294 8.98562C11.5713 9.59987 11.3569 10.2315 11.0208 10.4923L10.3428 11.0312C10.0009 11.3093 10.0473 11.8251 10.0473 11.8251C10.0473 11.8251 11.0498 15.6381 14.8164 16.5942Z" fill="white"/>
</svg>
